<?xml version="1.0" encoding="UTF-8"?> <svg xmlns="http://www.w3.org/2000/svg" xmlns:xlink="http://www.w3.org/1999/xlink" width="183.006" height="52.656" viewBox="0 0 183.006 52.656"><defs><clipPath id="clip-path"><rect id="Rectangle_772" data-name="Rectangle 772" width="183.006" height="52.656" fill="#fe3b01"></rect></clipPath></defs><g id="Group_749" data-name="Group 749" clip-path="url(#clip-path)"><path id="Path_5818" data-name="Path 5818" d="M776.466,15.163a5.418,5.418,0,0,0,1.74,2.476,5.09,5.09,0,0,0,2.211,1.058,12.544,12.544,0,0,0,2.393.224H788.1V16.089l-5.147.021h-.181a6.269,6.269,0,0,1-1.265-.127,1.877,1.877,0,0,1-1.029-.624,2.982,2.982,0,0,1-.63-1.136,6.709,6.709,0,0,1-.255-1.342c-.013-.221-.019-.444-.019-.665v-.648a8.576,8.576,0,0,1,.69-3.258c.4-.9,1.286-1.341,2.691-1.355H788.1V4.163l-5.207.021a6.938,6.938,0,0,0-5.029,1.654,7.686,7.686,0,0,0-1.908,5.131q-.02.3-.03.608c-.007.2,0,.417.01.633a9.992,9.992,0,0,0,.531,2.953" transform="translate(-708.266 -3.8)" fill="#fe3b01"></path><path id="Path_5819" data-name="Path 5819" d="M952.413,12.893h5.253v6.033h3.355V4.168h-3.355v5.853h-5.253V4.168h-3.355V18.926h3.355Z" transform="translate(-866.307 -3.805)" fill="#fe3b01"></path><path id="Path_5820" data-name="Path 5820" d="M1115.071,15.163a5.419,5.419,0,0,0,1.741,2.476,5.084,5.084,0,0,0,2.21,1.058,12.544,12.544,0,0,0,2.393.224h5.288V16.089l-5.147.021h-.181a6.269,6.269,0,0,1-1.265-.127,1.786,1.786,0,0,1-1.01-.624,2.8,2.8,0,0,1-.658-1.218,6,6,0,0,1-.164-1.271h8.425V10.035l-8.394.021a3.605,3.605,0,0,1,.869-2.216,3.2,3.2,0,0,1,2.378-.845h5.147V4.163l-5.206.021a6.938,6.938,0,0,0-5.029,1.654,7.684,7.684,0,0,0-1.908,5.131c-.013.2-.024.406-.03.608s0,.42.01.633a10.009,10.009,0,0,0,.531,2.953" transform="translate(-1017.347 -3.8)" fill="#fe3b01"></path><path id="Path_5821" data-name="Path 5821" d="M1295.956,18.927h3.447l3.4-10.341-.222,10.341h3.3V4.17h-4.719L1297.6,14.906,1294.033,4.17h-4.738V18.927h3.419l-.278-10.468Z" transform="translate(-1176.877 -3.806)" fill="#fe3b01"></path><rect id="Rectangle_769" data-name="Rectangle 769" width="3.496" height="14.757" transform="translate(132.409 0.364)" fill="#fe3b01"></rect><path id="Path_5822" data-name="Path 5822" d="M1589.1,5.839a7.678,7.678,0,0,0-1.907,5.13q-.021.305-.031.608c-.007.2,0,.417.01.633a9.961,9.961,0,0,0,.531,2.953,5.411,5.411,0,0,0,1.74,2.476,5.091,5.091,0,0,0,2.211,1.058,12.537,12.537,0,0,0,2.394.224h5.287V16.09l-5.146.021h-.181a6.267,6.267,0,0,1-1.265-.127,1.878,1.878,0,0,1-1.029-.624,2.984,2.984,0,0,1-.63-1.137,6.712,6.712,0,0,1-.255-1.342c-.013-.22-.019-.444-.019-.664v-.648a8.578,8.578,0,0,1,.69-3.258c.4-.9,1.285-1.341,2.691-1.354h5.146V4.164l-5.207.021a6.936,6.936,0,0,0-5.029,1.654" transform="translate(-1448.771 -3.801)" fill="#fe3b01"></path><path id="Path_5823" data-name="Path 5823" d="M1753.089,4.168h-3.428l-6.228,14.758h3.547l1.287-3.439h6.055l1.328,3.439h3.728L1753.13,4.265Zm.124,8.427h-3.84l1.884-4.952Z" transform="translate(-1591.417 -3.805)" fill="#fe3b01"></path><path id="Path_5824" data-name="Path 5824" d="M1944.5,18.712a14.991,14.991,0,0,0,2.592.214h4V16.214l-3.739.021c-1.519,0-2.431-.326-2.71-.971a7.7,7.7,0,0,1-.429-3.013V4.168h-3.355v8.766a12.211,12.211,0,0,0,.224,2.344,4.206,4.206,0,0,0,1.126,2.109,4.144,4.144,0,0,0,2.29,1.325" transform="translate(-1771.633 -3.805)" fill="#fe3b01"></path><path id="Path_5825" data-name="Path 5825" d="M789.586,221.465h-7.5v2.872h4.062v3.082l-3.259.019c-1.381,0-2.245-.4-2.642-1.237a7.146,7.146,0,0,1-.618-3.089v-.06a8.231,8.231,0,0,1,.621-3.226,2.554,2.554,0,0,1,2.639-1.421h6.695v-2.812l-6.695.021a6.937,6.937,0,0,0-5.029,1.654,7.684,7.684,0,0,0-1.908,5.131c-.013.2-.023.405-.03.608s0,.417.01.633a9.987,9.987,0,0,0,.531,2.953,5.418,5.418,0,0,0,1.739,2.475,4.9,4.9,0,0,0,2.245,1.069,13.792,13.792,0,0,0,2.442.213h6.695Z" transform="translate(-708.266 -196.794)" fill="#fe3b01"></path><path id="Path_5826" data-name="Path 5826" d="M977.64,215.638c-.307-.027-.566-.013-.879-.04h-7.641v14.757h3.355v-5.672H975.8l3.178,5.672h3.792l-3.635-6.072a3.581,3.581,0,0,0,2.111-1.471,4.73,4.73,0,0,0,.72-2.691c0-.1,0-.2-.011-.292s-.009-.18-.01-.283a5.338,5.338,0,0,0-.342-1.493,3.544,3.544,0,0,0-.85-1.282,3.321,3.321,0,0,0-1.468-.865,7.58,7.58,0,0,0-1.647-.267m-5.164,2.851h3.4v.02h.159a6.082,6.082,0,0,1,1.813.254c.487.153.724.61.724,1.4.012.763-.208,1.217-.67,1.387a4.937,4.937,0,0,1-1.705.282l-.09,0-.034-.017h-3.6Z" transform="translate(-884.62 -196.799)" fill="#fe3b01"></path><path id="Path_5827" data-name="Path 5827" d="M1148.792,227.589a9.986,9.986,0,0,0,1.267.082,13.792,13.792,0,0,0,1.4-.071,9.7,9.7,0,0,0,1.347-.235,5.851,5.851,0,0,0,2.768-1.417,6,6,0,0,0,1.571-2.695,9.743,9.743,0,0,0,.327-1.594,14.055,14.055,0,0,0,.1-1.709,12.108,12.108,0,0,0-.113-1.631,11.905,11.905,0,0,0-.317-1.553,6.172,6.172,0,0,0-1.549-2.662,5.8,5.8,0,0,0-2.7-1.447,8.766,8.766,0,0,0-1.372-.266,10.121,10.121,0,0,0-1.406-.061,10.612,10.612,0,0,0-1.307.082,12.319,12.319,0,0,0-1.266.225,5.945,5.945,0,0,0-2.737,1.458,6.488,6.488,0,0,0-1.578,2.648l-.008.045a8.238,8.238,0,0,0-.32,1.524,14.165,14.165,0,0,0-.1,1.7,12.738,12.738,0,0,0,.112,1.69,10.885,10.885,0,0,0,.317,1.552,6,6,0,0,0,1.571,2.695,5.846,5.846,0,0,0,2.749,1.417,12.589,12.589,0,0,0,1.242.224m-2.374-7.578a9.926,9.926,0,0,1,.059-1.079,7.7,7.7,0,0,1,.133-.808l.064-.245a4.538,4.538,0,0,1,.718-1.555,2.752,2.752,0,0,1,1.353-.95,3.911,3.911,0,0,1,.7-.174,4.733,4.733,0,0,1,1.479,0,4,4,0,0,1,.7.175,2.728,2.728,0,0,1,1.37.94,3.956,3.956,0,0,1,.7,1.559c.078.34.142.7.188,1.06a8.638,8.638,0,0,1,.069,1.076,8.785,8.785,0,0,1-.069,1.1c-.046.363-.11.72-.188,1.062a3.873,3.873,0,0,1-.7,1.546,2.872,2.872,0,0,1-1.374.952,4.021,4.021,0,0,1-.7.174,4.734,4.734,0,0,1-1.48,0,3.956,3.956,0,0,1-.7-.174,2.807,2.807,0,0,1-1.363-.951,4.19,4.19,0,0,1-.706-1.549,10.727,10.727,0,0,1-.189-1.06,8.685,8.685,0,0,1-.069-1.1" transform="translate(-1043.156 -193.814)" fill="#fe3b01"></path><path id="Path_5828" data-name="Path 5828" d="M1347.787,230.395c.283.041.568.068.849.082s.548.021.8.021.547-.007.832-.021.577-.041.854-.081a7.833,7.833,0,0,0,2.145-.554,4.039,4.039,0,0,0,2.386-2.8,7.637,7.637,0,0,0,.2-1.522c.014-.171.02-.344.02-.515V215.6h-3.355v8.826a4.624,4.624,0,0,1-.6,2.624,2.9,2.9,0,0,1-2.474.837,2.929,2.929,0,0,1-2.485-.838,4.607,4.607,0,0,1-.614-2.643V215.6H1343v9.41c0,.178.007.351.02.507a8.1,8.1,0,0,0,.185,1.528,3.853,3.853,0,0,0,.651,1.437,4.067,4.067,0,0,0,1.757,1.381,7.478,7.478,0,0,0,2.17.533" transform="translate(-1225.903 -196.8)" fill="#fe3b01"></path><path id="Path_5829" data-name="Path 5829" d="M1515.058,218.659h4.645v11.906h3.455V218.659h4.686v-2.832h-12.787Z" transform="translate(-1382.955 -197.009)" fill="#fe3b01"></path><rect id="Rectangle_770" data-name="Rectangle 770" width="3.496" height="14.757" transform="translate(67.655 37.234)" fill="#fe3b01"></rect><path id="Path_5830" data-name="Path 5830" d="M868.007,436.948l-5.653-9.922h-4.093v14.757H861.7l-.135-10.465,5.955,10.465h3.771V427.026h-3.417Z" transform="translate(-783.427 -389.792)" fill="#fe3b01"></path><path id="Path_5831" data-name="Path 5831" d="M1041.551,435.128a7.152,7.152,0,0,1-.5,2.969c-.306.647-1.166.976-2.559.976h-3.8v2.711h4.322a13.173,13.173,0,0,0,2.494-.234,3.878,3.878,0,0,0,2.19-1.307,4.575,4.575,0,0,0,.958-1.687,8.111,8.111,0,0,0,.349-1.9c0-.145,0-.286.01-.425s.011-.3.011-.46v-8.746h-3.476Z" transform="translate(-944.474 -389.792)" fill="#fe3b01"></path><path id="Path_5832" data-name="Path 5832" d="M1184.094,428.691a7.68,7.68,0,0,0-1.908,5.131c-.013.2-.024.406-.03.608s0,.415.01.633a10.007,10.007,0,0,0,.531,2.953,5.415,5.415,0,0,0,1.74,2.476,5.1,5.1,0,0,0,2.211,1.057,12.526,12.526,0,0,0,2.393.224h5.288v-2.832l-5.147.021H1189a6.257,6.257,0,0,1-1.266-.127,1.791,1.791,0,0,1-1.01-.624,2.81,2.81,0,0,1-.658-1.219,5.989,5.989,0,0,1-.164-1.272h8.425v-2.832l-8.394.02a3.609,3.609,0,0,1,.869-2.215,3.2,3.2,0,0,1,2.378-.845h5.147v-2.832l-5.207.021a6.936,6.936,0,0,0-5.029,1.654" transform="translate(-1079.076 -389.783)" fill="#fe3b01"></path><path id="Path_5833" data-name="Path 5833" d="M1351.545,428.691a7.677,7.677,0,0,0-1.907,5.13c-.014.2-.025.406-.031.609s0,.422.01.633a10,10,0,0,0,.531,2.953,5.415,5.415,0,0,0,1.74,2.476,5.09,5.09,0,0,0,2.21,1.057,12.536,12.536,0,0,0,2.394.224h5.287v-2.832l-5.146.021h-.181a6.26,6.26,0,0,1-1.265-.127,1.879,1.879,0,0,1-1.029-.624,2.992,2.992,0,0,1-.63-1.137,6.719,6.719,0,0,1-.255-1.341c-.013-.23-.02-.454-.02-.665v-.649a8.576,8.576,0,0,1,.69-3.258c.405-.9,1.285-1.341,2.691-1.354h5.146v-2.792l-5.207.021a6.934,6.934,0,0,0-5.028,1.654" transform="translate(-1231.926 -389.783)" fill="#fe3b01"></path><path id="Path_5834" data-name="Path 5834" d="M1512.1,430.087h4.646v11.906h3.455V430.087h4.686v-2.831H1512.1Z" transform="translate(-1380.255 -390.001)" fill="#fe3b01"></path><rect id="Rectangle_771" data-name="Rectangle 771" width="3.495" height="14.757" transform="translate(146.247 37.234)" fill="#fe3b01"></rect><path id="Path_5835" data-name="Path 5835" d="M1763.116,428.195a6.175,6.175,0,0,0-1.549-2.662,5.8,5.8,0,0,0-2.7-1.447,8.769,8.769,0,0,0-1.372-.266,10.11,10.11,0,0,0-1.406-.061,10.529,10.529,0,0,0-1.306.081,12.4,12.4,0,0,0-1.267.225,5.937,5.937,0,0,0-2.736,1.458,6.483,6.483,0,0,0-1.578,2.648l-.008.045a8.266,8.266,0,0,0-.32,1.524,14.186,14.186,0,0,0-.1,1.7,12.749,12.749,0,0,0,.112,1.69,11.012,11.012,0,0,0,.317,1.552,6,6,0,0,0,1.571,2.694,5.845,5.845,0,0,0,2.749,1.417c.409.1.826.17,1.242.224a9.927,9.927,0,0,0,1.267.082,13.78,13.78,0,0,0,1.4-.071,9.727,9.727,0,0,0,1.347-.234,5.852,5.852,0,0,0,2.769-1.417,6,6,0,0,0,1.572-2.694,9.78,9.78,0,0,0,.327-1.595,14.218,14.218,0,0,0,.1-1.709,12.026,12.026,0,0,0-.113-1.63,11.892,11.892,0,0,0-.317-1.553m-7.709,8.074a3.931,3.931,0,0,1-.7-.174,2.807,2.807,0,0,1-1.364-.951,4.172,4.172,0,0,1-.706-1.549,10.552,10.552,0,0,1-.188-1.06,8.564,8.564,0,0,1-.07-1.1,10,10,0,0,1,.06-1.079,7.4,7.4,0,0,1,.135-.814l.062-.239a4.54,4.54,0,0,1,.718-1.555,2.751,2.751,0,0,1,1.353-.95,3.93,3.93,0,0,1,.7-.174,4.738,4.738,0,0,1,1.479,0,3.965,3.965,0,0,1,.7.175,2.732,2.732,0,0,1,1.37.94,3.978,3.978,0,0,1,.7,1.559c.078.34.142.7.188,1.06a8.547,8.547,0,0,1,.069,1.076,8.709,8.709,0,0,1-.069,1.1c-.046.363-.11.72-.189,1.062a3.872,3.872,0,0,1-.695,1.546,2.868,2.868,0,0,1-1.375.952,3.952,3.952,0,0,1-.7.174,4.754,4.754,0,0,1-1.479,0" transform="translate(-1596.286 -386.806)" fill="#fe3b01"></path><path id="Path_5836" data-name="Path 5836" d="M1959.041,427.026l.134,9.922-5.653-9.922h-4.093v14.757h3.437l-.135-10.465,5.955,10.465h3.771V427.026Z" transform="translate(-1779.452 -389.792)" fill="#fe3b01"></path><path id="Path_5837" data-name="Path 5837" d="M214.187,0a25.952,25.952,0,0,0-25.514,22.766h15.979a10.493,10.493,0,0,1,9.878-7.147h15.608V0Z" transform="translate(-172.222)" fill="#fe3b01"></path><path id="Path_5838" data-name="Path 5838" d="M221.019,349.95h-6.488a10.494,10.494,0,0,1-9.878-7.147H188.674a25.952,25.952,0,0,0,25.514,22.766H230.14V349.95h-9.121Z" transform="translate(-172.223 -312.913)" fill="#fe3b01"></path><path id="Path_5839" data-name="Path 5839" d="M34.792,218.144l0,.482H0v1.829H34.786v.411l.006.071a7.789,7.789,0,0,0,7.517,6.474H57.917V211.669H42.308a7.788,7.788,0,0,0-7.517,6.475" transform="translate(0 -193.213)" fill="#fe3b01"></path></g></svg> 